<svg xmlns="http://www.w3.org/2000/svg" xmlns:xlink="http://www.w3.org/1999/xlink" width="75" height="54" viewBox="0 0 75 54"><defs><path id="toema" d="M422.6 77.47c-13.17-.98-21.76 1.55-23.6 1.56-1.84-.01-10.43-2.54-23.6-1.56-.4.58.28 3.11.28 3.11s.6-.04 1 .62c.41.67.46 1.3 1.28 3.43.81 2.13 1.18 6.8 9.27 6.8 7.05 0 9.05-5.56 9.55-6.58.49-1 1.16-2.88 2.22-2.88 1.06 0 1.73 1.89 2.22 2.88.5 1.02 2.5 6.58 9.55 6.58 8.1 0 8.46-4.67 9.27-6.8.82-2.14.87-2.76 1.28-3.43.4-.66 1-.62 1-.62s.68-2.53.27-3.11zm-44.38 1.39c0 .37-.31.68-.7.68-.38 0-.7-.3-.7-.68 0-.38.32-.68.7-.68.39 0 .7.3.7.68zm17.2 4.68c-.75 4.33-3.48 6.6-9.07 6.6-7.12 0-6.75-5.67-6.96-8.4-.2-2.74 2.37-3.09 3-3.07 2.84.12 7.23.27 7.98.4s5.8.13 5.05 4.47zm23.08-1.8c-.2 2.73.16 8.4-6.96 8.4-5.6 0-8.32-2.27-9.07-6.6-.75-4.34 4.3-4.34 5.05-4.47.75-.13 5.13-.28 7.98-.4.63-.02 3.2.33 3 3.07zm3.02-2.88c0 .37-.31.68-.7.68-.38 0-.69-.3-.69-.68 0-.38.31-.68.7-.68.38 0 .69.3.69.68zm-40.45 27.4c.82 4.74 5.7 4.42 9.16 3.26 2.63-.89 6.06-2.32 7.93-3.78.67-.51 1-1.06 1.12-1.64.14.58.46 1.13 1.13 1.64 1.87 1.46 5.3 2.9 7.93 3.78 3.45 1.16 8.34 1.48 9.16-3.25.34-1.94-.34-4.55-.34-3.89 0 .66-1.01 2.28-1.06 1.95-.05-.34-.49-1.24-.49-1.24s.2 2.14-1.9 2.33c-2.54.23-3.49-4.49-5.31-6.44-2.87-3.07-8.3-.47-9.02 3.1l-.1.52-.09-.51c-.71-3.58-6.15-6.18-9.02-3.11-1.82 1.95-2.77 6.67-5.32 6.44-2.09-.2-1.9-2.33-1.9-2.33s-.43.9-.48 1.24c-.05.33-1.07-1.29-1.07-1.95 0-.66-.67 1.95-.33 3.89z"/></defs><g><g transform="translate(-371 -58)"><use fill="#444" xlink:href="#toema"/></g></g></svg>