<svg xmlns="http://www.w3.org/2000/svg" xmlns:xlink="http://www.w3.org/1999/xlink" width="20" height="27" viewBox="0 0 20 27"><defs><path id="s9hja" d="M1494 61v15a3 3 0 0 1-3 3h-12a3 3 0 0 1-3-3V61a3 3 0 0 1 3-3h1.5c0-1.66 2.01-3 4.5-3 2.48 0 4.5 1.34 4.5 3h1.5a3 3 0 0 1 3 3zm-12-3h6c0-1.04-1.34-1.5-3-1.5s-3 .46-3 1.5zm10.5 16.5h-15V76c0 .82.67 1.5 1.5 1.5h12c.82 0 1.5-.68 1.5-1.5zm0-13.5c0-.83-.68-1.5-1.5-1.5h-1.5V64h-1.5v-4.5h-6V64h-1.5v-4.5h-1.5c-.83 0-1.5.67-1.5 1.5v12h15z"/></defs><g><g transform="translate(-1475 -53)"><use xlink:href="#s9hja"/><use fill="#fff" xlink:href="#s9hja"/></g></g></svg>