<svg xmlns="http://www.w3.org/2000/svg" xmlns:xlink="http://www.w3.org/1999/xlink" width="27" height="28" viewBox="0 0 27 28"><defs><path id="v5aka" d="M1545.76 78.76c-.3.3-.8.3-1.1 0l-6.21-6.12a10.15 10.15 0 0 1-6.36 2.22c-5.57 0-10.09-4.44-10.09-9.93 0-5.49 4.52-9.93 10.1-9.93 5.57 0 10.09 4.44 10.09 9.93 0 2.56-1 4.9-2.62 6.66l6.2 6.1c.3.29.3.77 0 1.07zm-5.13-13.83c0-4.64-3.82-8.4-8.54-8.4a8.47 8.47 0 0 0-8.54 8.4c0 4.64 3.83 8.4 8.54 8.4a8.47 8.47 0 0 0 8.54-8.4z"/></defs><g><g transform="translate(-1521 -53)"><use xlink:href="#v5aka"/><use fill="#fff" xlink:href="#v5aka"/></g></g></svg>