<?xml version="1.0" standalone="no"?>
<!DOCTYPE svg PUBLIC "-//W3C//DTD SVG 1.1//EN" "http://www.w3.org/Graphics/SVG/1.1/DTD/svg11.dtd">
<svg xmlns="http://www.w3.org/2000/svg">
<metadata>Copyright (C) 2017 by original authors @ fontello.com</metadata>
<defs>
<font id="fontello" horiz-adv-x="1000" >
<font-face font-family="fontello" font-weight="400" font-stretch="normal" units-per-em="1000" ascent="850" descent="-150" />
<missing-glyph horiz-adv-x="1000" />
<glyph glyph-name="custom" unicode="&#xe800;" d="M998 353c0 37-26 77-59 88-33 12-64 40-73 62-10 23-7 65 8 97 14 31 5 78-21 104-26 26-72 35-103 20-32-15-74-18-97-8-22 9-50 41-62 73-12 33-51 59-88 59-37 0-76-26-87-59-12-32-40-64-63-73-22-10-65-7-96 8-31 15-78 6-104-20-26-26-35-73-20-104 15-32 17-74 8-97-9-22-41-50-73-62-33-11-60-51-60-88 0-36 27-76 60-87 32-12 64-40 73-63 9-22 7-64-8-96-15-31-6-78 20-104 26-26 73-35 104-20 31 15 74 18 96 8 23-9 51-41 63-74 11-32 50-59 87-59 37 0 76 27 88 59 12 33 40 65 62 74 23 10 65 7 97-8 31-15 77-6 103 20 26 26 35 73 21 104-15 32-18 74-8 96 9 23 40 51 73 63 33 11 59 51 59 87z m-495-181c-100 0-181 81-181 181 0 101 81 182 181 182 100 0 182-81 182-182 0-100-82-181-182-181z" horiz-adv-x="1000" />

<glyph glyph-name="folder" unicode="&#xe801;" d="M1428 452c0 0-264-540-264-540-16-34-60-61-98-61 0 0-980 0-980 0-38 0-55 27-38 61 0 0 263 540 263 540 17 34 61 61 98 61 0 0 981 0 981 0 38 0 55-27 38-61z m-1178 30c0 0-229-469-229-469 0 0 0 615 0 615 0 38 30 69 68 69 0 0 300 0 300 0 0 0 0 40 0 40 0 28 11 54 30 73 20 20 45 31 73 31 0 0 174 0 174 0 57 0 103-47 103-104 0 0 0-40 0-40 0 0 300 0 300 0 38 0 69-31 69-69 0 0 0-46 0-46 0 0-729 0-729 0-63 0-131-43-159-100z m208 215c0 0 243 0 243 0 0 0 0 40 0 40 0 19-16 35-35 35 0 0-174 0-174 0-9 0-18-4-24-10-7-7-10-16-10-25 0 0 0-40 0-40z" horiz-adv-x="1444" />

<glyph glyph-name="sheets" unicode="&#xe802;" d="M10 358c0 0 100 53 100 53 0 0 436-235 436-235 0 0 437 235 437 235 0 0 99-53 99-53 0 0-536-289-536-289 0 0-536 289-536 289z m0 200c0 0 536 289 536 289 0 0 536-289 536-289 0 0-536-289-536-289 0 0-536 289-536 289z m536-583c0 0 437 236 437 236 0 0 99-54 99-54 0 0-536-289-536-289 0 0-536 289-536 289 0 0 100 54 100 54 0 0 436-236 436-236z" horiz-adv-x="1100" />

<glyph glyph-name="pensil" unicode="&#xe803;" d="M973 448c0 0-291-292-291-292 0 0-671-295-671-295 0 0 295 671 295 671 0 0 292 291 292 291 12 13 33 13 46 0 12-13 12-33 0-46 0 0-283-282-283-282 0 0-175-398-175-398 0 0 61-61 61-61 0 0 397 175 397 175 0 0 283 283 283 283 13 12 33 12 46 0 13-13 13-34 0-46z m-366-179c-6-6-15-9-23-9-8 0-16 3-23 9-12 13-12 33 0 46 0 0 272 272 272 272 13 13 33 13 46 0 13-13 13-33 0-46 0 0-272-272-272-272z m-71 71c-6-6-15-9-23-9-8 0-16 3-23 9-13 13-13 34 0 46 0 0 272 272 272 272 13 13 33 13 46 0 13-12 13-33 0-46 0 0-272-272-272-272z m-71 71c-6-6-15-9-23-9-8 0-17 3-23 9-13 13-13 34 0 46 0 0 272 272 272 272 13 13 34 13 46 0 13-12 13-33 0-46 0 0-272-272-272-272z" horiz-adv-x="1000" />

<glyph glyph-name="users" unicode="&#xe804;" d="M453 163c130 0 235 128 235 285 0 157-105 285-235 285-64 0-123-31-168-86-43-54-66-124-66-199 0-157 105-285 234-285z m0 507c95 0 172-99 172-222 0-123-77-223-172-223-95 0-172 100-172 223 0 123 77 222 172 222z m197-476c-17 0-31-14-31-31 0-18 14-32 31-32 107 0 194-87 194-194 0-13-11-25-25-25 0 0-731 0-731 0-14 0-25 12-25 25 0 107 86 194 193 194 17 0 32 14 32 32 0 17-15 31-32 31-141 0-256-115-256-257 0-48 39-87 88-87 0 0 731 0 731 0 48 0 87 39 87 87 0 142-115 257-256 257z m-174 574c22 13 46 20 71 20 95 0 172-100 172-223 0-22-3-44-7-64-4-17 6-34 23-38 2 0 5-1 7-1 14 0 27 10 30 24 6 26 9 52 9 79 0 157-105 285-234 285-36 0-71-10-103-29-15-8-20-28-11-42 9-15 28-20 43-11z m274-449c-17 0-31-14-31-31 0-18 14-32 31-32 107 0 188-89 188-195 0-4-1-8-2-11-8-16 0-34 15-41 4-2 9-3 13-3 12 0 23 7 29 19 5 11 7 23 7 36 0 141-109 258-250 258z" horiz-adv-x="1000" />

<glyph glyph-name="cup" unicode="&#xe805;" d="M1046-122c0-15-12-28-28-28 0 0-990 0-990 0-15 0-28 13-28 28 0 16 13 29 28 29 0 0 990 0 990 0 16 0 28-13 28-29z m-551 467c5-5 12-7 19-7 7 0 15 3 20 9 11 11 10 29-1 40-48 45-38 138 4 190 56 71 68 197-4 265-11 11-29 11-40-1-10-11-10-30 2-40 43-41 42-133-2-188-29-37-47-86-48-136-1-53 16-100 50-132z m596 59c0 0 0-54 0-54 0-78-63-142-140-142 0 0-63 0-63 0-42-120-155-206-288-206 0 0-154 0-154 0-168 0-306 139-306 311 0 0 0 282 0 282 0 16 13 28 28 28 0 0 180 0 180 0 37 57 35 140-6 178-11 11-11 29-1 40 11 12 28 12 40 1 72-68 59-194 3-265-41-52-51-145-3-190 11-11 12-29 1-40-11-12-28-12-40-2-33 32-51 79-49 132 0 31 8 62 20 89 0 0-117 0-117 0 0 0 0-253 0-253 0-140 112-254 250-254 0 0 154 0 154 0 138 0 250 114 250 254 0 0 0 253 0 253 0 0-211 0-211 0-15 0-28 13-28 29 0 16 13 28 28 28 0 0 239 0 239 0 16 0 28-12 28-28 0 0 0-49 0-49 0 0 45 0 45 0 77 0 140-63 140-142z m-56 0c0 47-38 85-84 85 0 0-45 0-45 0 0 0 0-224 0-224 0 0 45 0 45 0 46 0 84 38 84 85 0 0 0 54 0 54z" horiz-adv-x="1091" />

<glyph glyph-name="hart" unicode="&#xe806;" d="M688 850c-10 0-20-1-29-1-4-1-7-1-11-2-5 0-11-1-17-2-4-1-9-2-13-3-5-1-9-2-14-4-5-1-9-2-13-4-4-1-8-2-12-4-11-4-21-8-31-13-2-1-4-2-6-3-5-3-10-6-15-9-3-2-6-3-8-5-5-3-10-6-15-10-1-1-3-2-4-3-54 41-120 63-187 63-173 0-313-140-313-312 0-283 182-539 487-685 4-2 9-3 13-3 5 0 9 1 13 3 305 146 487 402 487 685 0 172-140 312-312 312z m-188-934c-274 136-437 367-437 622 0 138 112 250 250 250 50 0 99-16 140-44-48-56-78-128-78-206 0-18 14-32 31-32 18 0 32 14 32 32 0 74 33 141 84 187 5 4 10 8 15 12 1 1 2 1 4 2 5 4 10 7 15 11 1 1 3 1 4 2 5 3 10 6 16 9 1 1 3 2 5 2 5 3 10 5 15 7 2 1 5 2 7 3 5 1 10 3 15 4 3 1 6 2 9 3 4 1 9 2 13 3 4 1 9 1 13 2 3 0 7 1 10 1 8 1 16 2 25 2 138 0 250-112 250-250 0-255-164-486-438-622z m188 809c-18 0-32-14-32-31 0-17 14-31 32-31 68 0 125-57 125-125 0-18 13-32 31-32 17 0 31 14 31 32 0 103-84 187-187 187z" horiz-adv-x="1000" />

<glyph glyph-name="lounch" unicode="&#xe807;" d="M1189-73c0 0-1151 0-1151 0-21 0-38-17-38-38 0-22 17-39 38-39 0 0 1151 0 1151 0 21 0 38 17 38 39 0 21-17 38-38 38z m-537 769c0 0 0 77 0 77 0 0 77 0 77 0 21 0 38 17 38 39 0 21-17 38-38 38 0 0-230 0-230 0-21 0-39-17-39-38 0-22 18-39 39-39 0 0 76 0 76 0 0 0 0-80 0-77-321-20-575-288-575-615 0-31 0-17 0-39 0-21 17-38 38-38 0 0 1151 0 1151 0 21 0 38 17 38 38 0 22 0 5 0 39 0 327-254 595-575 615z m-575-615c0 297 240 538 537 538 296 0 537-241 537-538 0 0-1074 0-1074 0z" horiz-adv-x="1227" />

<glyph glyph-name="dialogs" unicode="&#xe808;" d="M656 319c0 0-312 0-312 0-17 0-31-14-31-31 0-18 14-32 31-32 0 0 312 0 312 0 17 0 32 14 32 32 0 17-15 31-32 31z m63 187c0 0-438 0-438 0-17 0-31-14-31-31 0-17 14-31 31-31 0 0 438 0 438 0 17 0 31 14 31 31 0 17-14 31-31 31z m-219 344c-276 0-500-196-500-437 0-138 73-261 188-342 0 0 0-221 0-221 0 0 219 133 219 133 30-5 61-8 93-8 276 0 500 196 500 438 0 241-224 437-500 437z m0-812c-37 0-72 4-106 11 0 0-147-88-147-88 0 0 2 145 2 145-112 67-186 180-186 307 0 207 195 375 437 375 242 0 438-168 438-375 0-207-196-375-438-375z" horiz-adv-x="1000" />

<glyph glyph-name="play-circled2-1" unicode="&#xe80c;" d="M661 350q0-21-18-31l-304-178q-8-5-18-5-8 0-17 4-18 11-18 31v358q0 20 18 31 18 10 35-1l304-178q18-10 18-31z m71 0q0 83-41 152t-110 111-152 41-153-41-110-111-41-152 41-152 110-111 153-41 152 41 110 111 41 152z m125 0q0-117-57-215t-156-156-215-58-216 58-155 156-58 215 58 215 155 156 216 58 215-58 156-156 57-215z" horiz-adv-x="857.1" />

<glyph glyph-name="link" unicode="&#xe80e;" d="M294 116q14 14 34 14t36-14q32-34 0-70l-42-40q-56-56-132-56-78 0-134 56t-56 132q0 78 56 134l148 148q70 68 144 77t128-43q16-16 16-36t-16-36q-36-32-70 0-50 48-132-34l-148-146q-26-26-26-64t26-62q26-26 63-26t63 26z m450 574q56-56 56-132 0-78-56-134l-158-158q-74-72-150-72-62 0-112 50-14 14-14 34t14 36q14 14 35 14t35-14q50-48 122 24l158 156q28 28 28 64 0 38-28 62-24 26-56 31t-60-21l-50-50q-16-14-36-14t-34 14q-34 34 0 70l50 50q54 54 127 51t129-61z" horiz-adv-x="800" />

<glyph glyph-name="03" unicode="&#xe810;" d="M500 807c253 0 456-204 456-457 0-252-203-456-456-456-253 0-457 204-457 456 0 253 204 457 457 457z" horiz-adv-x="1000" />

<glyph glyph-name="list" unicode="&#xe811;" d="M500 850c-276 0-500-224-500-500 0-276 224-500 500-500 276 0 500 224 500 500 0 276-224 500-500 500z m157-524c0 0-216-215-216-215-13-14-35-14-48 0-12 12-12 33 0 46 0 0 193 193 193 193 0 0-193 193-193 193-12 13-12 34 0 47 13 13 35 13 48 0 0 0 216-216 216-216 6-7 10-15 9-24 0-9-3-17-9-24z" horiz-adv-x="1000" />

<glyph glyph-name="arrow" unicode="&#xe812;" d="M119-128c0 0 480 434 480 434 26 24 26 64 0 88 0 0-4 1-4 1 0 0-476 433-476 433-26 23-70 23-98 0 0 0 0 0 0 0-12-12-21-28-21-45 0 0 0-866 0-866 0-17 9-32 23-43 0 0-2-2-2-2 28-23 72-23 98 0z" horiz-adv-x="625" />

<glyph glyph-name="icon-play" unicode="&#xe813;" d="M446 584c0 0 254-211 254-211 6-6 10-14 10-23 0-9-4-17-10-23 0 0-254-210-254-210-5-5-12-7-18-7-5 0-9 1-13 2-10 5-17 16-17 27 0 0 0 422 0 422 0 11 7 22 17 27 10 4 23 3 31-4z m11-382c0 0 178 148 178 148 0 0-178 148-178 148 0 0 0-296 0-296z m397-206c-96-96-225-146-355-146-84 0-168 21-244 64-14 8-19 26-11 40 7 14 25 19 40 11 171-96 389-67 528 73 172 172 172 452 0 624-172 172-452 172-624 0-172-172-172-452 0-624 11-12 11-30 0-42-12-11-30-11-42 0-195 195-195 513 0 708 195 195 513 195 708 0 195-195 195-513 0-708z" horiz-adv-x="1000" />

<glyph glyph-name="slider-left" unicode="&#xe814;" d="M521-150c0 0-521 500-521 500 0 0 521 500 521 500 0 0 27-28 27-28 0 0-492-472-492-472 0 0 492-472 492-472 0 0-27-28-27-28z" horiz-adv-x="548" />

<glyph glyph-name="left" unicode="&#xe815;" d="M345 376c0 0 216 217 216 217 14 13 35 13 48 0 13-13 13-35 0-47 0 0-193-194-193-194 0 0 193-193 193-193 13-13 13-34 0-48-13-13-34-13-48 0 0 0-216 217-216 217-7 7-10 15-10 24 0 9 3 17 10 24z m155 473c275 0 499-223 499-499 0-276-224-500-499-500-276 0-500 224-500 500 0 276 224 499 500 499z m0-932c238 0 432 194 432 433 0 238-194 432-432 432-239 0-433-194-433-432 0-239 194-433 433-433z" horiz-adv-x="1000" />

<glyph glyph-name="link-1" unicode="&#xe816;" d="M904 418c0 0-74-74-74-74 0 0-123-123-123-123-6-7-13-12-20-18-68-54-158-65-236-34-29 11-56 28-80 52 0 0 101 102 101 102 37-37 97-37 133 0 0 0 79 77 79 77 0 0 118 119 118 119 37 37 37 97 0 133-37 37-96 37-133 0 0 0-94-94-94-94-59 27-127 32-189 14 0 0 182 182 182 182 92 93 244 93 336 0 93-93 93-244 0-336z m-355 113c28-11 56-29 80-52 0 0-102-102-102-102-37 37-97 37-133 0 0 0-197-197-197-197-37-36-37-96 0-133 37-37 97-37 133 0 0 0 91 91 91 91 77-31 98-34 189-13 0 0-178-180-178-180-93-92-244-92-337 0-92 93-92 244 0 337 0 0 197 197 197 197 3 2 6 6 10 8 68 62 165 77 247 44z" horiz-adv-x="1000" />

<glyph glyph-name="logos" unicode="&#xe817;" d="M944-135c0 0 94 165 94 165 0 0 94-165 94-165 0 0-188 0-188 0z m-117 178c0 0 188 0 188 0 0 0-94-164-94-164 0 0-94 164-94 164z m94 192c0 0 94-164 94-164 0 0-188 0-188 0 0 0 94 164 94 164z m-211 13c0 0 187 0 187 0 0 0-94-163-94-163 0 0-93 163-93 163z m93 192c0 0 94-164 94-164 0 0-187 0-187 0 0 0 93 164 93 164z m-211 14c0 0 188 0 188 0 0 0-94-164-94-164 0 0-94 164-94 164z m94 191c0 0 94-164 94-164 0 0-188 0-188 0 0 0 94 164 94 164z m-211 14c0 0 188 0 188 0 0 0-94-164-94-164 0 0-94 164-94 164z m94 191c0 0 94-164 94-164 0 0-188 0-188 0 0 0 94 164 94 164z m-211-369c0 0 94 164 94 164 0 0 93-164 93-164 0 0-187 0-187 0z m-118-205c0 0 94 164 94 164 0 0 94-164 94-164 0 0-188 0-188 0z m-117-205c0 0 94 164 94 164 0 0 94-164 94-164 0 0-188 0-188 0z m-117-206c0 0 94 165 94 165 0 0 94-165 94-165 0 0-188 0-188 0z m305 178c0 0-94-164-94-164 0 0-94 164-94 164 0 0 188 0 188 0z m117 205c0 0-94-163-94-163 0 0-94 163-94 163 0 0 188 0 188 0z m117 206c0 0-93-164-93-164 0 0-94 164-94 164 0 0 187 0 187 0z m118-589c0 0-188 0-188 0 0 0 94 165 94 165 0 0 94-165 94-165z m117 178c0 0-94-164-94-164 0 0-94 164-94 164 0 0 188 0 188 0z m117-178c0 0-187 0-187 0 0 0 93 165 93 165 0 0 94-165 94-165z" horiz-adv-x="1143" />

<glyph glyph-name="lupa" unicode="&#xe818;" d="M1018-117c-12-13-30-19-46-19-17 0-34 6-47 19 0 0-173 171-173 171-76-58-171-93-274-93-246 0-447 198-447 441 0 243 201 440 447 440 247 0 448-197 448-440 0-95-31-182-83-254 0 0 175-173 175-173 26-25 26-67 0-92z m-540 856c-188 0-342-151-342-337 0-186 154-337 342-337 84 0 162 30 221 80 19 15 35 33 50 51 45 58 71 129 71 206 0 186-153 337-342 337z m194-272c-7-4-15-5-23-5-19 0-38 10-47 29-28 57-86 92-150 92-29 0-52 23-52 52 0 29 23 52 52 52 105 0 199-58 245-151 13-26 1-57-25-69z" horiz-adv-x="1040" />

<glyph glyph-name="slider-right" unicode="&#xe819;" d="M27-150c0 0 521 500 521 500 0 0-521 500-521 500 0 0-27-28-27-28 0 0 492-472 492-472 0 0-492-472-492-472 0 0 27-28 27-28z" horiz-adv-x="548" />

<glyph glyph-name="right" unicode="&#xe81a;" d="M656 376c0 0-218 217-218 217-12 13-34 13-47 0-13-13-13-35 0-47 0 0 194-194 194-194 0 0-194-193-194-193-13-13-13-34 0-48 13-13 35-13 47 0 0 0 218 217 218 217 6 7 9 15 9 24 0 9-3 17-9 24z m-155 473c-276 0-500-223-500-499 0-276 224-500 500-500 275 0 499 224 499 500 0 276-224 499-499 499z m0-932c-239 0-433 194-433 433 0 238 194 432 433 432 238 0 432-194 432-432 0-239-194-433-432-433z" horiz-adv-x="1000" />
</font>
</defs>
</svg>
